<svg width="256" height="256" viewBox="0 0 256 256" fill="none" xmlns="http://www.w3.org/2000/svg">
  <!-- Main background -->
  <rect width="256" height="256" rx="32" fill="url(#gradient)"/>
  
  <!-- Document icon -->
  <rect x="64" y="48" width="128" height="160" rx="8" fill="white" fill-opacity="0.95"/>
  
  <!-- Text lines -->
  <rect x="80" y="80" width="96" height="8" rx="4" fill="#2271b1"/>
  <rect x="80" y="104" width="96" height="8" rx="4" fill="#2271b1" fill-opacity="0.7"/>
  <rect x="80" y="128" width="72" height="8" rx="4" fill="#2271b1" fill-opacity="0.5"/>
  <rect x="80" y="152" width="88" height="8" rx="4" fill="#2271b1" fill-opacity="0.7"/>
  <rect x="80" y="176" width="64" height="8" rx="4" fill="#2271b1" fill-opacity="0.5"/>
  
  <!-- AI/Magic sparkle -->
  <circle cx="200" cy="80" r="24" fill="#00a32a"/>
  <path d="M200 68l4 8h8l-6 6 2 8-8-4-8 4 2-8-6-6h8l4-8z" fill="white"/>
  
  <!-- Notion sync indicator -->
  <circle cx="200" cy="176" r="16" fill="#ff6b35"/>
  <path d="M192 176h16M200 168v16" stroke="white" stroke-width="2" stroke-linecap="round"/>
  
  <!-- Gradient definition -->
  <defs>
    <linearGradient id="gradient" x1="0%" y1="0%" x2="100%" y2="100%">
      <stop offset="0%" style="stop-color:#667eea;stop-opacity:1" />
      <stop offset="100%" style="stop-color:#764ba2;stop-opacity:1" />
    </linearGradient>
  </defs>
</svg>