<svg width="128" height="128" viewBox="0 0 128 128" xmlns="http://www.w3.org/2000/svg">
  <defs>
    <linearGradient id="bgGradient" x1="0%" y1="0%" x2="100%" y2="100%">
      <stop offset="0%" style="stop-color:#667eea;stop-opacity:1" />
      <stop offset="100%" style="stop-color:#764ba2;stop-opacity:1" />
    </linearGradient>
    <linearGradient id="paperGradient" x1="0%" y1="0%" x2="100%" y2="100%">
      <stop offset="0%" style="stop-color:#ffffff;stop-opacity:1" />
      <stop offset="100%" style="stop-color:#f8fafc;stop-opacity:1" />
    </linearGradient>
    <linearGradient id="aiGradient" x1="0%" y1="0%" x2="100%" y2="100%">
      <stop offset="0%" style="stop-color:#10b981;stop-opacity:1" />
      <stop offset="100%" style="stop-color:#059669;stop-opacity:1" />
    </linearGradient>
    <filter id="shadow" x="-50%" y="-50%" width="200%" height="200%">
      <feDropShadow dx="2" dy="4" stdDeviation="3" flood-color="#000000" flood-opacity="0.2"/>
    </filter>
  </defs>
  
  <!-- Background Circle -->
  <circle cx="64" cy="64" r="60" fill="url(#bgGradient)" filter="url(#shadow)"/>
  
  <!-- Document/Paper -->
  <rect x="32" y="24" width="48" height="64" rx="4" ry="4" fill="url(#paperGradient)" stroke="#e2e8f0" stroke-width="1"/>
  
  <!-- Document Lines (representing content) -->
  <line x1="38" y1="34" x2="68" y2="34" stroke="#94a3b8" stroke-width="2" stroke-linecap="round"/>
  <line x1="38" y1="42" x2="74" y2="42" stroke="#94a3b8" stroke-width="2" stroke-linecap="round"/>
  <line x1="38" y1="50" x2="66" y2="50" stroke="#94a3b8" stroke-width="2" stroke-linecap="round"/>
  <line x1="38" y1="58" x2="72" y2="58" stroke="#94a3b8" stroke-width="2" stroke-linecap="round"/>
  <line x1="38" y1="66" x2="64" y2="66" stroke="#94a3b8" stroke-width="2" stroke-linecap="round"/>
  <line x1="38" y1="74" x2="70" y2="74" stroke="#94a3b8" stroke-width="2" stroke-linecap="round"/>
  
  <!-- AI Brain/Chip Icon -->
  <circle cx="88" cy="40" r="16" fill="url(#aiGradient)" filter="url(#shadow)"/>
  
  <!-- AI Circuit Pattern -->
  <g stroke="#ffffff" stroke-width="1.5" fill="none">
    <!-- Central processor -->
    <rect x="84" y="36" width="8" height="8" rx="1"/>
    <!-- Circuit lines -->
    <line x1="80" y1="40" x2="84" y2="40"/>
    <line x1="92" y1="40" x2="96" y2="40"/>
    <line x1="88" y1="32" x2="88" y2="36"/>
    <line x1="88" y1="44" x2="88" y2="48"/>
    <!-- Small connection dots -->
    <circle cx="80" cy="40" r="1" fill="#ffffff"/>
    <circle cx="96" cy="40" r="1" fill="#ffffff"/>
    <circle cx="88" cy="32" r="1" fill="#ffffff"/>
    <circle cx="88" cy="48" r="1" fill="#ffffff"/>
  </g>
  
  <!-- Sync/Connection Arrows -->
  <g fill="url(#aiGradient)">
    <!-- Arrow from AI to document -->
    <path d="M 76 48 L 68 52 L 76 56 L 74 52 Z" opacity="0.8"/>
    <!-- Curved connection line -->
    <path d="M 76 52 Q 72 52 68 52" stroke="url(#aiGradient)" stroke-width="2" fill="none" opacity="0.6"/>
  </g>
  
  <!-- Notion-style icon (small) -->
  <g transform="translate(20, 96)">
    <rect x="0" y="0" width="12" height="12" rx="2" fill="#000000" opacity="0.8"/>
    <rect x="2" y="2" width="8" height="8" rx="1" fill="#ffffff"/>
    <rect x="3" y="3" width="6" height="1" fill="#000000" opacity="0.3"/>
    <rect x="3" y="5" width="4" height="1" fill="#000000" opacity="0.3"/>
    <rect x="3" y="7" width="5" height="1" fill="#000000" opacity="0.3"/>
  </g>
  
  <!-- WordPress icon (small) -->
  <g transform="translate(96, 96)">
    <circle cx="6" cy="6" r="6" fill="#21759b"/>
    <circle cx="6" cy="6" r="2" fill="#ffffff"/>
    <path d="M 2 6 A 4 4 0 0 1 6 2" stroke="#ffffff" stroke-width="1" fill="none"/>
    <path d="M 10 6 A 4 4 0 0 1 6 10" stroke="#ffffff" stroke-width="1" fill="none"/>
  </g>
</svg>